<mxfile host="app.diagrams.net" agent="Mozilla/5.0 (Windows NT 10.0; Win64; x64) AppleWebKit/537.36 (KHTML, like Gecko) Chrome/137.0.0.0 Safari/537.36" version="27.1.6">
  <diagram name="Pagina-1" id="q5SdlHfGuLSYK5Ea52MW">
    <mxGraphModel grid="1" page="1" gridSize="10" guides="1" tooltips="1" connect="1" arrows="1" fold="1" pageScale="1" pageWidth="827" pageHeight="1169" math="0" shadow="0">
      <root>
        <mxCell id="0" />
        <mxCell id="1" parent="0" />
        <mxCell id="jfeon6HeDt7GRnX7dWGx-30" value="&lt;span style=&quot;font-size: 16px; font-weight: 700;&quot;&gt;Utente&lt;/span&gt;" style="html=1;whiteSpace=wrap;fontColor=default;" vertex="1" parent="1">
          <mxGeometry x="70" y="130" width="140" height="50" as="geometry" />
        </mxCell>
        <mxCell id="jfeon6HeDt7GRnX7dWGx-31" value="" style="endArrow=none;dashed=1;html=1;rounded=0;entryX=0.5;entryY=1;entryDx=0;entryDy=0;" edge="1" parent="1" target="jfeon6HeDt7GRnX7dWGx-30">
          <mxGeometry width="50" height="50" relative="1" as="geometry">
            <mxPoint x="140" y="480" as="sourcePoint" />
            <mxPoint x="160" y="220" as="targetPoint" />
          </mxGeometry>
        </mxCell>
        <mxCell id="jfeon6HeDt7GRnX7dWGx-32" value="&lt;span style=&quot;font-size: 16px; font-weight: 700;&quot;&gt;:HomeDashboard&lt;/span&gt;" style="html=1;whiteSpace=wrap;fontColor=#000000;fillColor=#fa6800;strokeColor=#C73500;" vertex="1" parent="1">
          <mxGeometry x="300" y="130" width="140" height="50" as="geometry" />
        </mxCell>
        <mxCell id="jfeon6HeDt7GRnX7dWGx-33" value="" style="endArrow=none;dashed=1;html=1;rounded=0;entryX=0.5;entryY=1;entryDx=0;entryDy=0;" edge="1" parent="1" target="jfeon6HeDt7GRnX7dWGx-32">
          <mxGeometry width="50" height="50" relative="1" as="geometry">
            <mxPoint x="370" y="480" as="sourcePoint" />
            <mxPoint x="390" y="220" as="targetPoint" />
            <Array as="points">
              <mxPoint x="370" y="280" />
            </Array>
          </mxGeometry>
        </mxCell>
        <mxCell id="jfeon6HeDt7GRnX7dWGx-34" value="&lt;span style=&quot;font-size: 16px; font-weight: 700;&quot;&gt;&lt;font style=&quot;color: rgb(0, 0, 0);&quot;&gt;:VisualizzaUltimoDato&lt;/font&gt;&lt;/span&gt;" style="html=1;whiteSpace=wrap;fontColor=#ffffff;fillColor=#008a00;strokeColor=#005700;" vertex="1" parent="1">
          <mxGeometry x="596" y="130" width="174" height="50" as="geometry" />
        </mxCell>
        <mxCell id="jfeon6HeDt7GRnX7dWGx-35" value="" style="endArrow=none;dashed=1;html=1;rounded=0;" edge="1" parent="1">
          <mxGeometry width="50" height="50" relative="1" as="geometry">
            <mxPoint x="683" y="350" as="sourcePoint" />
            <mxPoint x="683" y="180" as="targetPoint" />
          </mxGeometry>
        </mxCell>
        <mxCell id="jfeon6HeDt7GRnX7dWGx-40" value="" style="endArrow=open;dashed=1;endFill=0;html=1;rounded=0;" edge="1" parent="1">
          <mxGeometry width="160" relative="1" as="geometry">
            <mxPoint x="680" y="330" as="sourcePoint" />
            <mxPoint x="370" y="330" as="targetPoint" />
          </mxGeometry>
        </mxCell>
        <mxCell id="jfeon6HeDt7GRnX7dWGx-58" value="rilevazione" style="edgeLabel;html=1;align=center;verticalAlign=middle;resizable=0;points=[];" connectable="0" vertex="1" parent="jfeon6HeDt7GRnX7dWGx-40">
          <mxGeometry x="-0.0391" y="1" relative="1" as="geometry">
            <mxPoint as="offset" />
          </mxGeometry>
        </mxCell>
        <mxCell id="jfeon6HeDt7GRnX7dWGx-41" value="Actor" style="shape=umlActor;verticalLabelPosition=bottom;verticalAlign=top;html=1;" vertex="1" parent="1">
          <mxGeometry x="125" y="70" width="30" height="60" as="geometry" />
        </mxCell>
        <mxCell id="jfeon6HeDt7GRnX7dWGx-61" value="" style="endArrow=open;html=1;rounded=0;endFill=0;" edge="1" parent="1">
          <mxGeometry width="50" height="50" relative="1" as="geometry">
            <mxPoint x="370" y="280" as="sourcePoint" />
            <mxPoint x="680" y="280" as="targetPoint" />
          </mxGeometry>
        </mxCell>
        <mxCell id="jfeon6HeDt7GRnX7dWGx-62" value="visualizza(Posizione)" style="edgeLabel;html=1;align=center;verticalAlign=middle;resizable=0;points=[];" connectable="0" vertex="1" parent="jfeon6HeDt7GRnX7dWGx-61">
          <mxGeometry x="-0.0066" y="1" relative="1" as="geometry">
            <mxPoint as="offset" />
          </mxGeometry>
        </mxCell>
        <mxCell id="jfeon6HeDt7GRnX7dWGx-63" value="" style="endArrow=open;html=1;rounded=0;endFill=0;" edge="1" parent="1">
          <mxGeometry width="50" height="50" relative="1" as="geometry">
            <mxPoint x="140" y="220" as="sourcePoint" />
            <mxPoint x="370" y="220" as="targetPoint" />
          </mxGeometry>
        </mxCell>
        <mxCell id="jfeon6HeDt7GRnX7dWGx-64" value="show" style="edgeLabel;html=1;align=center;verticalAlign=middle;resizable=0;points=[];" connectable="0" vertex="1" parent="jfeon6HeDt7GRnX7dWGx-63">
          <mxGeometry x="-0.0066" y="1" relative="1" as="geometry">
            <mxPoint as="offset" />
          </mxGeometry>
        </mxCell>
        <mxCell id="jfeon6HeDt7GRnX7dWGx-65" value="" style="endArrow=open;html=1;rounded=0;endFill=0;" edge="1" parent="1">
          <mxGeometry width="50" height="50" relative="1" as="geometry">
            <mxPoint x="140" y="410" as="sourcePoint" />
            <mxPoint x="370" y="410" as="targetPoint" />
          </mxGeometry>
        </mxCell>
        <mxCell id="jfeon6HeDt7GRnX7dWGx-66" value="storico" style="edgeLabel;html=1;align=center;verticalAlign=middle;resizable=0;points=[];" connectable="0" vertex="1" parent="jfeon6HeDt7GRnX7dWGx-65">
          <mxGeometry x="-0.0066" y="1" relative="1" as="geometry">
            <mxPoint as="offset" />
          </mxGeometry>
        </mxCell>
        <mxCell id="jfeon6HeDt7GRnX7dWGx-67" value="" style="endArrow=open;html=1;rounded=0;endFill=0;" edge="1" parent="1">
          <mxGeometry width="50" height="50" relative="1" as="geometry">
            <mxPoint x="370" y="460" as="sourcePoint" />
            <mxPoint x="880" y="460" as="targetPoint" />
          </mxGeometry>
        </mxCell>
        <mxCell id="jfeon6HeDt7GRnX7dWGx-68" value="show" style="edgeLabel;html=1;align=center;verticalAlign=middle;resizable=0;points=[];" connectable="0" vertex="1" parent="jfeon6HeDt7GRnX7dWGx-67">
          <mxGeometry x="-0.0066" y="1" relative="1" as="geometry">
            <mxPoint as="offset" />
          </mxGeometry>
        </mxCell>
        <mxCell id="jfeon6HeDt7GRnX7dWGx-69" value="&lt;span style=&quot;font-size: 16px; font-weight: 700;&quot;&gt;:ViewVisualizzaStorico&lt;/span&gt;" style="html=1;whiteSpace=wrap;fontColor=#000000;fillColor=#fa6800;strokeColor=#C73500;" vertex="1" parent="1">
          <mxGeometry x="790" y="320" width="180" height="50" as="geometry" />
        </mxCell>
        <mxCell id="jfeon6HeDt7GRnX7dWGx-70" value="" style="endArrow=none;dashed=1;html=1;rounded=0;" edge="1" parent="1">
          <mxGeometry width="50" height="50" relative="1" as="geometry">
            <mxPoint x="880" y="660" as="sourcePoint" />
            <mxPoint x="879.66" y="370" as="targetPoint" />
          </mxGeometry>
        </mxCell>
        <mxCell id="jfeon6HeDt7GRnX7dWGx-71" value="&lt;span style=&quot;font-size: 16px; font-weight: 700;&quot;&gt;&lt;font style=&quot;color: rgb(0, 0, 0);&quot;&gt;:VisualizzaStorico&lt;/font&gt;&lt;/span&gt;" style="html=1;whiteSpace=wrap;fillColor=#008a00;strokeColor=#005700;shadow=0;fontColor=#ffffff;" vertex="1" parent="1">
          <mxGeometry x="1030" y="320" width="174" height="50" as="geometry" />
        </mxCell>
        <mxCell id="jfeon6HeDt7GRnX7dWGx-72" value="" style="endArrow=none;dashed=1;html=1;rounded=0;" edge="1" parent="1">
          <mxGeometry width="50" height="50" relative="1" as="geometry">
            <mxPoint x="1120" y="660" as="sourcePoint" />
            <mxPoint x="1120" y="370" as="targetPoint" />
          </mxGeometry>
        </mxCell>
        <mxCell id="jfeon6HeDt7GRnX7dWGx-73" value="" style="endArrow=open;html=1;rounded=0;endFill=0;" edge="1" parent="1">
          <mxGeometry width="50" height="50" relative="1" as="geometry">
            <mxPoint x="880" y="510" as="sourcePoint" />
            <mxPoint x="1120" y="510" as="targetPoint" />
          </mxGeometry>
        </mxCell>
        <mxCell id="jfeon6HeDt7GRnX7dWGx-75" value="listaTutto()" style="edgeLabel;html=1;align=center;verticalAlign=middle;resizable=0;points=[];" connectable="0" vertex="1" parent="jfeon6HeDt7GRnX7dWGx-73">
          <mxGeometry x="-0.0066" y="1" relative="1" as="geometry">
            <mxPoint as="offset" />
          </mxGeometry>
        </mxCell>
        <mxCell id="jfeon6HeDt7GRnX7dWGx-76" value="" style="endArrow=open;dashed=1;endFill=0;html=1;rounded=0;" edge="1" parent="1">
          <mxGeometry width="160" relative="1" as="geometry">
            <mxPoint x="1120" y="540" as="sourcePoint" />
            <mxPoint x="880" y="540" as="targetPoint" />
          </mxGeometry>
        </mxCell>
        <mxCell id="jfeon6HeDt7GRnX7dWGx-77" value="elencoRilevazioni" style="edgeLabel;html=1;align=center;verticalAlign=middle;resizable=0;points=[];" connectable="0" vertex="1" parent="jfeon6HeDt7GRnX7dWGx-76">
          <mxGeometry x="-0.0391" y="1" relative="1" as="geometry">
            <mxPoint x="-3" as="offset" />
          </mxGeometry>
        </mxCell>
        <mxCell id="jfeon6HeDt7GRnX7dWGx-78" value="" style="endArrow=open;html=1;rounded=0;endFill=0;" edge="1" parent="1">
          <mxGeometry width="50" height="50" relative="1" as="geometry">
            <mxPoint x="880" y="600" as="sourcePoint" />
            <mxPoint x="1120" y="600" as="targetPoint" />
          </mxGeometry>
        </mxCell>
        <mxCell id="jfeon6HeDt7GRnX7dWGx-79" value="selezionaFiume(String)" style="edgeLabel;html=1;align=center;verticalAlign=middle;resizable=0;points=[];" connectable="0" vertex="1" parent="jfeon6HeDt7GRnX7dWGx-78">
          <mxGeometry x="-0.0066" y="1" relative="1" as="geometry">
            <mxPoint as="offset" />
          </mxGeometry>
        </mxCell>
        <mxCell id="jfeon6HeDt7GRnX7dWGx-80" value="" style="endArrow=open;dashed=1;endFill=0;html=1;rounded=0;" edge="1" parent="1">
          <mxGeometry width="160" relative="1" as="geometry">
            <mxPoint x="1120" y="630" as="sourcePoint" />
            <mxPoint x="880" y="630" as="targetPoint" />
          </mxGeometry>
        </mxCell>
        <mxCell id="jfeon6HeDt7GRnX7dWGx-81" value="elencoRilevazioni" style="edgeLabel;html=1;align=center;verticalAlign=middle;resizable=0;points=[];" connectable="0" vertex="1" parent="jfeon6HeDt7GRnX7dWGx-80">
          <mxGeometry x="-0.0391" y="1" relative="1" as="geometry">
            <mxPoint x="-3" as="offset" />
          </mxGeometry>
        </mxCell>
        <mxCell id="jfeon6HeDt7GRnX7dWGx-84" value="SEQUENZA ULTIMO DATO E STORICO" style="text;html=1;align=center;verticalAlign=middle;resizable=0;points=[];autosize=1;strokeColor=none;fillColor=none;" vertex="1" parent="1">
          <mxGeometry x="180" y="48" width="240" height="30" as="geometry" />
        </mxCell>
        <mxCell id="jfeon6HeDt7GRnX7dWGx-85" value="SEQUENZA REGISTRAZIONE ESEGUITA CON SUCCESSO" style="text;html=1;align=center;verticalAlign=middle;resizable=0;points=[];autosize=1;strokeColor=none;fillColor=none;" vertex="1" parent="1">
          <mxGeometry x="60" y="690" width="350" height="30" as="geometry" />
        </mxCell>
        <mxCell id="jfeon6HeDt7GRnX7dWGx-86" value="&lt;span style=&quot;font-size: 16px; font-weight: 700;&quot;&gt;Utente&lt;/span&gt;" style="html=1;whiteSpace=wrap;fontColor=default;" vertex="1" parent="1">
          <mxGeometry x="150" y="830" width="140" height="50" as="geometry" />
        </mxCell>
        <mxCell id="jfeon6HeDt7GRnX7dWGx-87" value="" style="endArrow=none;dashed=1;html=1;rounded=0;entryX=0.5;entryY=1;entryDx=0;entryDy=0;" edge="1" parent="1" target="jfeon6HeDt7GRnX7dWGx-86">
          <mxGeometry width="50" height="50" relative="1" as="geometry">
            <mxPoint x="220" y="1210" as="sourcePoint" />
            <mxPoint x="240" y="920" as="targetPoint" />
          </mxGeometry>
        </mxCell>
        <mxCell id="jfeon6HeDt7GRnX7dWGx-88" value="&lt;span style=&quot;font-size: 16px; font-weight: 700;&quot;&gt;:ViewRegistrazione&lt;/span&gt;" style="html=1;whiteSpace=wrap;fontColor=#000000;fillColor=#fa6800;strokeColor=#C73500;" vertex="1" parent="1">
          <mxGeometry x="380" y="830" width="150" height="50" as="geometry" />
        </mxCell>
        <mxCell id="jfeon6HeDt7GRnX7dWGx-89" value="" style="endArrow=none;dashed=1;html=1;rounded=0;" edge="1" parent="1">
          <mxGeometry width="50" height="50" relative="1" as="geometry">
            <mxPoint x="450" y="1220" as="sourcePoint" />
            <mxPoint x="450" y="881" as="targetPoint" />
            <Array as="points">
              <mxPoint x="450" y="980" />
            </Array>
          </mxGeometry>
        </mxCell>
        <mxCell id="jfeon6HeDt7GRnX7dWGx-90" value="&lt;span style=&quot;font-size: 16px; font-weight: 700;&quot;&gt;&lt;font style=&quot;color: rgb(0, 0, 0);&quot;&gt;:Registrazione&lt;/font&gt;&lt;/span&gt;" style="html=1;whiteSpace=wrap;fontColor=#ffffff;fillColor=#008a00;strokeColor=#005700;" vertex="1" parent="1">
          <mxGeometry x="693" y="830" width="134" height="50" as="geometry" />
        </mxCell>
        <mxCell id="jfeon6HeDt7GRnX7dWGx-91" value="" style="endArrow=none;dashed=1;html=1;rounded=0;" edge="1" parent="1">
          <mxGeometry width="50" height="50" relative="1" as="geometry">
            <mxPoint x="760" y="1180" as="sourcePoint" />
            <mxPoint x="760" y="880" as="targetPoint" />
          </mxGeometry>
        </mxCell>
        <mxCell id="jfeon6HeDt7GRnX7dWGx-94" value="Actor" style="shape=umlActor;verticalLabelPosition=bottom;verticalAlign=top;html=1;" vertex="1" parent="1">
          <mxGeometry x="205" y="770" width="30" height="60" as="geometry" />
        </mxCell>
        <mxCell id="jfeon6HeDt7GRnX7dWGx-98" value="" style="endArrow=open;html=1;rounded=0;endFill=0;" edge="1" parent="1">
          <mxGeometry width="50" height="50" relative="1" as="geometry">
            <mxPoint x="450" y="980" as="sourcePoint" />
            <mxPoint x="760" y="980" as="targetPoint" />
          </mxGeometry>
        </mxCell>
        <mxCell id="jfeon6HeDt7GRnX7dWGx-99" value="registrazione(String,String,Posizione, String)" style="edgeLabel;html=1;align=center;verticalAlign=middle;resizable=0;points=[];" connectable="0" vertex="1" parent="jfeon6HeDt7GRnX7dWGx-98">
          <mxGeometry x="-0.0066" y="1" relative="1" as="geometry">
            <mxPoint as="offset" />
          </mxGeometry>
        </mxCell>
        <mxCell id="jfeon6HeDt7GRnX7dWGx-100" value="" style="endArrow=open;html=1;rounded=0;endFill=0;" edge="1" parent="1">
          <mxGeometry width="50" height="50" relative="1" as="geometry">
            <mxPoint x="220" y="930" as="sourcePoint" />
            <mxPoint x="450" y="930" as="targetPoint" />
          </mxGeometry>
        </mxCell>
        <mxCell id="jfeon6HeDt7GRnX7dWGx-123" value="registra" style="edgeLabel;html=1;align=center;verticalAlign=middle;resizable=0;points=[];" connectable="0" vertex="1" parent="jfeon6HeDt7GRnX7dWGx-100">
          <mxGeometry x="-0.0403" y="-1" relative="1" as="geometry">
            <mxPoint as="offset" />
          </mxGeometry>
        </mxCell>
        <mxCell id="jfeon6HeDt7GRnX7dWGx-106" value="&lt;span style=&quot;font-size: 16px; font-weight: 700;&quot;&gt;:UtenteRegistrato&lt;/span&gt;" style="html=1;whiteSpace=wrap;fontColor=#ffffff;fillColor=#1ba1e2;strokeColor=#006EAF;" vertex="1" parent="1">
          <mxGeometry x="850" y="980" width="180" height="50" as="geometry" />
        </mxCell>
        <mxCell id="jfeon6HeDt7GRnX7dWGx-124" value="" style="endArrow=open;html=1;rounded=0;endFill=0;entryX=-0.011;entryY=0.627;entryDx=0;entryDy=0;entryPerimeter=0;" edge="1" parent="1" target="jfeon6HeDt7GRnX7dWGx-106">
          <mxGeometry width="50" height="50" relative="1" as="geometry">
            <mxPoint x="760" y="1011" as="sourcePoint" />
            <mxPoint x="1190" y="940" as="targetPoint" />
            <Array as="points">
              <mxPoint x="790" y="1011" />
            </Array>
          </mxGeometry>
        </mxCell>
        <mxCell id="jfeon6HeDt7GRnX7dWGx-125" value="create" style="edgeLabel;html=1;align=center;verticalAlign=middle;resizable=0;points=[];" connectable="0" vertex="1" parent="jfeon6HeDt7GRnX7dWGx-124">
          <mxGeometry x="-0.0066" y="1" relative="1" as="geometry">
            <mxPoint as="offset" />
          </mxGeometry>
        </mxCell>
        <mxCell id="jfeon6HeDt7GRnX7dWGx-126" value="&lt;span style=&quot;font-size: 16px; font-weight: 700;&quot;&gt;&lt;font style=&quot;color: rgb(0, 0, 0);&quot;&gt;:Logger&lt;/font&gt;&lt;/span&gt;" style="html=1;whiteSpace=wrap;fontColor=#ffffff;fillColor=#008a00;strokeColor=#005700;" vertex="1" parent="1">
          <mxGeometry x="1080" y="980" width="134" height="50" as="geometry" />
        </mxCell>
        <mxCell id="jfeon6HeDt7GRnX7dWGx-127" value="" style="endArrow=none;dashed=1;html=1;rounded=0;" edge="1" parent="1">
          <mxGeometry width="50" height="50" relative="1" as="geometry">
            <mxPoint x="1146.09" y="1140" as="sourcePoint" />
            <mxPoint x="1146.09" y="1030" as="targetPoint" />
          </mxGeometry>
        </mxCell>
        <mxCell id="jfeon6HeDt7GRnX7dWGx-128" value="" style="endArrow=open;html=1;rounded=0;endFill=0;" edge="1" parent="1">
          <mxGeometry width="50" height="50" relative="1" as="geometry">
            <mxPoint x="760" y="1080" as="sourcePoint" />
            <mxPoint x="1140" y="1080" as="targetPoint" />
            <Array as="points" />
          </mxGeometry>
        </mxCell>
        <mxCell id="jfeon6HeDt7GRnX7dWGx-129" value="scrivi(String)" style="edgeLabel;html=1;align=center;verticalAlign=middle;resizable=0;points=[];" connectable="0" vertex="1" parent="jfeon6HeDt7GRnX7dWGx-128">
          <mxGeometry x="-0.0066" y="1" relative="1" as="geometry">
            <mxPoint as="offset" />
          </mxGeometry>
        </mxCell>
        <mxCell id="jfeon6HeDt7GRnX7dWGx-130" value="" style="endArrow=open;dashed=1;endFill=0;html=1;rounded=0;" edge="1" parent="1">
          <mxGeometry width="160" relative="1" as="geometry">
            <mxPoint x="1140" y="1120" as="sourcePoint" />
            <mxPoint x="760" y="1120" as="targetPoint" />
          </mxGeometry>
        </mxCell>
        <mxCell id="jfeon6HeDt7GRnX7dWGx-131" value="" style="endArrow=open;dashed=1;endFill=0;html=1;rounded=0;" edge="1" parent="1">
          <mxGeometry width="160" relative="1" as="geometry">
            <mxPoint x="760" y="1160" as="sourcePoint" />
            <mxPoint x="450" y="1160" as="targetPoint" />
          </mxGeometry>
        </mxCell>
        <mxCell id="jfeon6HeDt7GRnX7dWGx-134" value="&lt;span style=&quot;font-size: 16px; font-weight: 700;&quot;&gt;:HomeAreaPersonale&lt;/span&gt;" style="html=1;whiteSpace=wrap;fontColor=#000000;fillColor=#fa6800;strokeColor=#C73500;" vertex="1" parent="1">
          <mxGeometry x="1230" y="830" width="170" height="50" as="geometry" />
        </mxCell>
        <mxCell id="jfeon6HeDt7GRnX7dWGx-135" value="" style="endArrow=none;dashed=1;html=1;rounded=0;" edge="1" parent="1">
          <mxGeometry width="50" height="50" relative="1" as="geometry">
            <mxPoint x="1320" y="1230" as="sourcePoint" />
            <mxPoint x="1320" y="880" as="targetPoint" />
            <Array as="points">
              <mxPoint x="1320" y="979" />
            </Array>
          </mxGeometry>
        </mxCell>
        <mxCell id="jfeon6HeDt7GRnX7dWGx-136" value="" style="endArrow=open;html=1;rounded=0;endFill=0;" edge="1" parent="1">
          <mxGeometry width="50" height="50" relative="1" as="geometry">
            <mxPoint x="450" y="1200" as="sourcePoint" />
            <mxPoint x="1320" y="1200" as="targetPoint" />
          </mxGeometry>
        </mxCell>
        <mxCell id="jfeon6HeDt7GRnX7dWGx-137" value="show" style="edgeLabel;html=1;align=center;verticalAlign=middle;resizable=0;points=[];" connectable="0" vertex="1" parent="jfeon6HeDt7GRnX7dWGx-136">
          <mxGeometry x="-0.0403" y="-1" relative="1" as="geometry">
            <mxPoint as="offset" />
          </mxGeometry>
        </mxCell>
      </root>
    </mxGraphModel>
  </diagram>
</mxfile>
